<?xml version="1.0" standalone="no"?>
<!DOCTYPE svg PUBLIC "-//W3C//DTD SVG 20010904//EN"
 "http://www.w3.org/TR/2001/REC-SVG-20010904/DTD/svg10.dtd">
<svg version="1.0" xmlns="http://www.w3.org/2000/svg"
 width="1080.000000pt" height="1008.000000pt" viewBox="0 0 1080.000000 1008.000000"
 preserveAspectRatio="xMidYMid meet">

<g transform="translate(0.000000,1008.000000) scale(0.100000,-0.100000)"
fill="#000000" stroke="none">
<path d="M5220 9630 c-8 -5 -44 -12 -80 -15 -77 -8 -140 -25 -275 -72 -85 -30
-298 -131 -330 -156 -5 -4 -52 -39 -104 -78 -51 -38 -102 -81 -113 -94 -11
-14 -25 -25 -33 -25 -7 0 -15 -4 -17 -9 -3 -9 -79 -100 -115 -138 -13 -13 -23
-28 -23 -33 0 -6 -4 -10 -9 -10 -14 0 -107 -144 -158 -247 -63 -126 -95 -208
-124 -311 -18 -66 -26 -81 -38 -76 -60 25 -484 31 -513 7 -7 -7 -38 -15 -68
-18 -99 -12 -227 -58 -382 -137 -54 -28 -98 -54 -98 -59 0 -5 -6 -9 -14 -9
-22 0 -221 -157 -306 -241 -173 -171 -295 -350 -405 -594 -31 -70 -78 -237
-91 -325 -27 -187 -12 -483 31 -635 22 -78 53 -175 64 -200 32 -73 96 -201
103 -203 4 -2 8 -8 8 -13 0 -12 52 -93 63 -97 4 -2 7 -9 7 -16 0 -7 11 -25 25
-40 14 -15 25 -29 25 -32 0 -14 226 -244 241 -244 5 0 12 -6 15 -14 5 -13 167
-126 181 -126 3 0 14 -6 22 -14 28 -25 144 -82 216 -107 39 -13 72 -27 75 -30
7 -9 121 -39 190 -51 30 -5 59 -13 64 -19 6 -5 23 -9 38 -9 l28 0 0 -495 0
-495 -25 -10 c-14 -5 -25 -14 -25 -19 0 -5 -10 -13 -22 -17 -12 -3 -51 -27
-87 -51 -36 -25 -73 -48 -81 -52 -8 -3 -41 -24 -74 -46 -32 -22 -66 -44 -75
-50 -9 -5 -18 -12 -21 -15 -3 -3 -17 -12 -31 -20 -15 -8 -53 -33 -85 -56 -112
-78 -376 -254 -381 -254 -2 0 -11 -6 -18 -12 -8 -7 -30 -24 -51 -38 -20 -14
-50 -37 -66 -52 -16 -16 -33 -28 -37 -28 -17 0 -150 -163 -208 -255 -43 -68
-94 -201 -121 -315 l-27 -115 0 -665 c0 -662 0 -665 22 -737 13 -39 23 -77 23
-85 0 -12 69 -158 80 -168 3 -3 23 -29 44 -58 22 -30 65 -76 97 -102 63 -53
206 -134 254 -146 17 -4 35 -11 41 -16 43 -33 663 -38 734 -6 19 9 46 19 60
23 41 11 170 77 170 86 0 5 6 9 13 9 22 0 197 177 197 200 0 5 3 10 8 10 8 0
15 12 44 71 29 60 46 102 62 158 14 49 16 181 16 1198 0 1087 -2 1190 -26
1128 -4 -8 -12 -15 -19 -15 -8 0 -33 -15 -57 -33 -24 -18 -83 -59 -133 -91
-49 -32 -112 -73 -140 -92 l-50 -34 -5 -968 -5 -967 -28 -56 c-29 -58 -106
-149 -126 -149 -6 0 -11 -3 -11 -8 0 -4 -30 -18 -67 -30 -64 -22 -81 -23 -278
-20 -171 3 -218 7 -254 21 -101 41 -173 116 -204 216 -15 47 -17 119 -17 663
0 682 1 693 68 826 54 109 114 176 225 254 54 37 100 68 103 68 3 0 10 5 17
10 7 6 41 30 77 53 36 23 85 57 109 75 24 17 50 32 58 32 7 0 13 3 13 8 0 4
21 20 48 37 26 16 49 32 52 35 11 11 70 50 76 50 8 0 97 59 162 107 24 18 48
33 54 33 9 0 28 14 85 60 7 6 14 10 17 10 3 0 35 21 71 47 159 114 341 238
399 272 23 13 43 27 46 31 3 3 23 17 45 30 22 13 58 39 81 57 23 18 46 33 52
33 6 0 12 4 14 8 2 5 48 37 103 72 55 36 102 67 105 70 10 12 133 90 141 90 5
0 9 3 9 8 0 4 9 12 19 17 10 6 52 32 92 60 41 27 79 52 84 54 6 2 12 7 15 10
3 3 13 11 22 16 9 6 71 47 138 93 66 45 124 82 129 82 4 0 16 9 25 19 23 25
136 80 200 97 105 28 241 15 349 -35 49 -22 254 -157 293 -192 11 -11 25 -19
31 -19 7 0 18 -6 25 -13 7 -7 56 -40 108 -74 52 -35 100 -66 105 -70 6 -5 84
-57 175 -118 91 -60 167 -112 170 -115 3 -3 17 -12 31 -20 42 -24 208 -135
279 -185 57 -41 108 -75 175 -117 11 -7 22 -15 25 -18 3 -3 32 -23 65 -44 33
-21 69 -45 80 -52 11 -8 58 -39 105 -70 47 -31 101 -67 120 -81 19 -14 80 -54
135 -90 55 -36 110 -74 122 -85 12 -11 48 -36 81 -56 157 -96 502 -334 548
-379 65 -64 126 -166 156 -263 l23 -75 0 -645 0 -645 -23 -57 c-31 -78 -105
-151 -175 -174 -29 -9 -56 -20 -62 -25 -12 -12 -452 -12 -459 0 -3 4 -25 14
-50 21 -66 18 -146 94 -182 172 l-29 63 -3 972 -2 973 -28 17 c-24 15 -102 67
-200 133 -20 13 -76 50 -125 82 l-87 58 2 -1153 3 -1152 28 -83 c16 -46 44
-109 63 -142 19 -32 34 -62 34 -67 0 -5 22 -33 50 -63 27 -30 50 -58 50 -62 0
-5 4 -8 9 -8 6 0 25 -14 43 -31 43 -40 156 -106 216 -126 26 -9 63 -23 82 -32
30 -14 84 -16 355 -16 285 0 324 2 354 18 19 9 42 17 51 17 28 0 190 89 243
133 55 46 97 86 97 92 0 2 14 19 30 37 17 18 33 43 36 56 4 12 9 22 13 22 11
0 50 83 75 162 45 139 48 192 44 853 -3 556 -6 628 -22 700 -10 44 -25 92 -32
107 -8 15 -14 35 -14 44 0 40 -96 215 -175 318 -51 67 -191 196 -212 196 -6 0
-13 4 -15 8 -1 5 -43 35 -93 67 -49 32 -97 65 -105 72 -23 21 -142 101 -166
112 -12 5 -33 20 -48 34 -14 13 -43 35 -63 49 -21 13 -63 41 -94 61 -30 20
-59 37 -63 37 -4 0 -12 5 -19 10 -26 23 -133 89 -143 90 -7 0 -14 6 -17 13 -3
6 -22 21 -43 32 -22 11 -56 33 -76 49 l-38 29 0 488 0 487 28 5 c105 22 143
31 184 43 26 8 54 14 62 14 9 0 30 9 48 20 18 11 39 20 46 20 32 0 218 94 316
159 21 14 46 31 55 36 8 6 20 15 26 21 5 6 47 41 92 78 45 37 112 104 149 149
37 45 74 87 81 93 7 6 13 16 13 23 0 6 5 11 10 11 6 0 10 6 10 14 0 7 7 19 15
26 15 13 83 128 100 170 6 14 20 44 32 67 43 79 77 185 110 333 38 173 44 435
13 591 -22 118 -56 237 -71 253 -5 6 -9 17 -9 25 0 17 -77 175 -125 256 -118
202 -289 389 -489 539 -49 36 -95 66 -102 66 -7 0 -17 6 -21 13 -4 7 -34 26
-67 42 -32 17 -77 40 -100 52 -22 12 -47 22 -55 22 -8 1 -33 9 -55 19 -53 24
-138 48 -201 57 -27 4 -53 12 -57 18 -11 19 -490 16 -512 -2 -9 -8 -18 -12
-20 -10 -5 6 -66 200 -66 210 0 9 -65 155 -81 179 -5 8 -21 37 -35 65 -30 55
-65 108 -76 113 -5 2 -8 10 -8 17 0 8 -16 31 -35 52 -19 21 -35 41 -35 45 0 9
-218 228 -226 228 -3 0 -24 16 -47 35 -22 19 -44 35 -49 35 -5 0 -18 8 -29 18
-10 11 -32 25 -47 33 -15 8 -49 28 -77 45 -27 17 -62 34 -77 37 -15 4 -33 14
-42 22 -8 8 -19 15 -25 15 -6 0 -25 6 -43 14 -97 40 -255 82 -340 91 -37 4
-70 11 -73 16 -8 12 -356 11 -375 -1z m355 -449 c116 -11 281 -66 400 -133 50
-28 92 -55 93 -59 2 -5 10 -9 17 -9 7 0 23 -11 36 -25 13 -13 27 -25 31 -25
11 0 178 -169 178 -180 0 -5 9 -14 19 -20 11 -5 23 -20 27 -32 4 -13 9 -25 13
-28 14 -12 48 -68 66 -110 10 -25 24 -52 31 -60 16 -19 54 -133 54 -160 0 -11
4 -20 8 -20 16 0 31 -103 42 -280 18 -287 13 -272 78 -244 38 16 190 70 294
104 31 10 89 21 128 25 38 4 73 11 76 16 7 12 234 12 234 0 0 -5 30 -12 68
-16 338 -31 753 -373 916 -755 77 -183 100 -385 68 -605 -21 -144 -94 -333
-177 -460 -11 -16 -22 -32 -25 -35 -3 -3 -25 -29 -49 -58 -59 -71 -157 -164
-228 -216 -63 -47 -205 -126 -225 -126 -7 0 -26 -7 -43 -16 -39 -21 -155 -50
-229 -58 -33 -4 -64 -11 -70 -15 -6 -5 -58 -11 -115 -13 -93 -2 -109 -6 -146
-29 -27 -17 -50 -43 -64 -71 -21 -43 -21 -54 -21 -522 l0 -477 -22 7 c-13 4
-25 10 -28 13 -6 7 -108 77 -234 159 -45 29 -89 59 -99 67 -9 8 -20 15 -22 15
-3 0 -51 31 -106 70 -55 38 -103 70 -106 70 -3 0 -29 17 -57 38 -28 21 -112
78 -186 127 -74 50 -136 93 -138 97 -2 5 -8 8 -14 8 -6 0 -31 15 -57 34 -25
18 -62 41 -81 51 -19 10 -37 21 -40 24 -3 4 -25 15 -50 25 -25 9 -63 26 -85
36 -152 68 -494 69 -650 1 -117 -50 -320 -165 -355 -201 -3 -3 -39 -27 -80
-55 -41 -27 -76 -53 -78 -57 -2 -5 -7 -8 -12 -8 -7 0 -200 -125 -235 -153 -23
-18 -198 -133 -223 -147 -15 -8 -29 -17 -32 -20 -7 -8 -148 -103 -179 -120
-14 -8 -28 -17 -31 -20 -16 -16 -88 -60 -98 -60 -9 0 -12 117 -12 493 l0 492
-25 38 c-39 56 -74 70 -195 75 -58 2 -109 8 -115 12 -5 5 -37 11 -70 15 -67 7
-194 39 -240 59 -16 8 -48 21 -70 31 -193 82 -404 272 -518 467 -95 162 -145
313 -158 478 -16 198 2 349 58 495 21 55 93 196 109 216 8 8 14 20 14 26 0 6
3 13 8 15 4 2 32 37 64 79 85 115 329 328 376 329 6 0 12 4 12 8 0 5 28 21 63
36 34 16 70 32 80 37 80 41 248 72 392 72 136 0 266 -21 382 -62 48 -17 102
-36 118 -42 17 -6 61 -22 98 -35 38 -14 72 -23 75 -19 3 3 9 85 13 183 8 180
15 238 30 248 5 3 9 17 9 32 0 38 33 150 59 197 11 22 21 44 21 49 0 17 93
170 144 236 56 74 159 180 175 180 6 0 11 4 11 10 0 15 104 88 188 132 42 22
81 43 87 47 5 5 21 11 35 14 14 3 59 17 100 32 120 41 302 54 495 36z"/>
<path d="M4440 2173 c-51 -7 -107 -46 -141 -97 l-34 -51 0 -575 0 -576 32 -40
c47 -59 102 -94 160 -101 92 -10 182 37 224 119 18 35 19 67 19 604 0 630 3
600 -69 667 -34 32 -113 60 -154 56 -7 -1 -23 -3 -37 -6z"/>
<path d="M5356 2173 c-39 -6 -100 -46 -123 -80 -50 -74 -48 -50 -48 -637 l0
-551 24 -45 c42 -81 119 -130 205 -130 44 0 112 29 149 63 67 64 67 66 67 660
0 353 -4 545 -11 572 -29 106 -140 168 -263 148z"/>
<path d="M6280 2171 c-41 -9 -100 -38 -100 -49 0 -5 -9 -18 -20 -30 -49 -52
-50 -69 -50 -631 0 -603 0 -601 74 -669 108 -100 272 -72 346 59 l25 44 3 546
c2 505 1 550 -15 591 -23 57 -51 92 -95 116 -40 23 -118 33 -168 23z"/>
</g>
</svg>
